<?xml version="1.0" standalone="no"?>
<!DOCTYPE svg PUBLIC "-//W3C//DTD SVG 20010904//EN"
 "http://www.w3.org/TR/2001/REC-SVG-20010904/DTD/svg10.dtd">
<svg version="1.0" xmlns="http://www.w3.org/2000/svg"
 width="240.000000pt" height="118.000000pt" viewBox="0 0 240.000000 118.000000"
 preserveAspectRatio="xMidYMid meet">
<metadata>
Created by potrace 1.16, written by Peter Selinger 2001-2019
</metadata>
<g transform="translate(0.000000,118.000000) scale(0.100000,-0.100000)"
fill="#000000" stroke="none">
<path d="M1728 1036 c-64 -17 -122 -58 -155 -107 -22 -33 -28 -57 -31 -109 -2
-38 1 -84 8 -103 15 -48 79 -110 139 -135 l49 -20 45 63 45 63 -40 18 c-51 23
-78 58 -78 101 0 49 16 72 63 94 91 41 220 16 285 -55 l41 -44 40 53 c23 30
41 61 41 68 0 29 -77 85 -145 106 -78 24 -230 28 -307 7z"/>
<path d="M407 992 c16 -21 160 -219 322 -440 l294 -402 94 0 c77 0 93 2 86 14
-4 7 -147 205 -318 439 l-310 426 -98 0 -97 1 27 -38z"/>
<path d="M936 950 l-57 -80 47 -65 c26 -36 51 -62 55 -58 15 17 199 274 199
278 0 3 -42 5 -93 5 l-93 0 -58 -80z"/>
<path d="M1350 590 c0 -433 0 -440 20 -440 20 0 20 7 20 440 0 433 0 440 -20
440 -20 0 -20 -7 -20 -440z"/>
<path d="M1956 600 c-52 -73 -52 -74 0 -89 60 -18 124 -78 124 -115 0 -42 -27
-90 -62 -110 -44 -27 -151 -32 -219 -13 -58 17 -118 67 -146 121 l-15 29 -19
-24 c-10 -13 -32 -43 -48 -65 l-30 -41 27 -36 c65 -87 166 -127 322 -127 140
0 218 25 286 94 57 56 74 98 74 184 0 59 -20 115 -53 150 -27 30 -122 78 -169
87 -33 6 -37 4 -72 -45z"/>
<path d="M475 318 c-60 -83 -111 -155 -113 -160 -2 -4 39 -8 90 -8 l94 0 67
93 c37 50 67 96 68 100 2 10 -82 127 -90 127 -3 0 -55 -69 -116 -152z"/>
</g>
</svg>
