<svg xmlns="http://www.w3.org/2000/svg" xmlns:xlink="http://www.w3.org/1999/xlink" viewBox="0,0,256,256" width="48px" height="48px" fill-rule="nonzero"><g fill="#000000" fill-rule="nonzero" stroke="none" stroke-width="1" stroke-linecap="butt" stroke-linejoin="miter" stroke-miterlimit="10" stroke-dasharray="" stroke-dashoffset="0" font-family="none" font-weight="none" font-size="none" text-anchor="none" style="mix-blend-mode: normal"><g transform="scale(5.33333,5.33333)"><path d="M2,30h-2v-4c0,-1.654 1.346,-3 3,-3h9.5c0.827,0 1.5,-0.673 1.5,-1.5c0,-0.827 -0.673,-1.5 -1.5,-1.5h-12.5v-2h12.5c1.93,0 3.5,1.57 3.5,3.5c0,1.93 -1.57,3.5 -3.5,3.5h-9.5c-0.551,0 -1,0.448 -1,1zM21,30h-7v-2h7c0.551,0 1,-0.448 1,-1v-6c0,-1.654 1.346,-3 3,-3h7v2h-7c-0.551,0 -1,0.448 -1,1v6c0,1.654 -1.346,3 -3,3zM46,30h-2v-2h-12c-0.447,0 -0.84,-0.297 -0.962,-0.728c-0.122,-0.431 0.057,-0.89 0.438,-1.124l13,-8c0.307,-0.189 0.696,-0.199 1.012,-0.021c0.316,0.177 0.512,0.511 0.512,0.873v7h2v2h-2zM35.533,26h8.467v-5.21z"></path></g></g></svg>